<svg width="128" height="128" viewBox="0 0 128 128" fill="none" xmlns="http://www.w3.org/2000/svg">
<rect width="128" height="128" rx="15" fill="white"/>
<rect width="128" height="128" fill="url(#paint0_linear)"/>
<circle cx="64" cy="44" r="20" fill="white"/>
<circle cx="54" cy="38.8" r="2" fill="#1A1A1A"/>
<rect x="57.6" y="37.6" width="19.2" height="2.4" fill="#1A1A1A"/>
<circle cx="54" cy="44.4" r="2" fill="#1A1A1A"/>
<rect x="57.6" y="43.2" width="19.2" height="2.4" fill="#1A1A1A"/>
<circle cx="59.6" cy="50" r="2" fill="#1A1A1A"/>
<rect x="63.2" y="48.8" width="13.6" height="2.4" fill="#1A1A1A"/>
<path d="M50.1432 77.439C50.9892 77.439 51.6072 77.235 51.9972 76.827C52.3932 76.419 52.5912 75.861 52.5912 75.153C52.5912 74.829 52.5402 74.535 52.4382 74.271C52.3422 74.001 52.1922 73.773 51.9882 73.587C51.7902 73.395 51.5382 73.248 51.2322 73.146C50.9262 73.044 50.5632 72.993 50.1432 72.993H48.4332V77.439H50.1432ZM50.1432 70.941C51.0372 70.941 51.8082 71.046 52.4562 71.256C53.1102 71.466 53.6472 71.76 54.0672 72.138C54.4872 72.51 54.7962 72.954 54.9942 73.47C55.1982 73.986 55.3002 74.547 55.3002 75.153C55.3002 75.795 55.1952 76.383 54.9852 76.917C54.7752 77.451 54.4572 77.91 54.0312 78.294C53.6052 78.678 53.0682 78.978 52.4202 79.194C51.7722 79.404 51.0132 79.509 50.1432 79.509H48.4332V84H45.7332V70.941H50.1432ZM61.2637 80.121C60.6577 80.151 60.1537 80.205 59.7517 80.283C59.3497 80.355 59.0287 80.451 58.7887 80.571C58.5547 80.691 58.3867 80.829 58.2847 80.985C58.1887 81.135 58.1407 81.3 58.1407 81.48C58.1407 81.84 58.2397 82.095 58.4377 82.245C58.6417 82.395 58.9237 82.47 59.2837 82.47C59.6977 82.47 60.0547 82.398 60.3547 82.254C60.6607 82.104 60.9637 81.873 61.2637 81.561V80.121ZM56.2057 76.008C56.7517 75.516 57.3547 75.15 58.0147 74.91C58.6747 74.664 59.3887 74.541 60.1567 74.541C60.7087 74.541 61.2007 74.631 61.6327 74.811C62.0707 74.991 62.4397 75.243 62.7397 75.567C63.0457 75.885 63.2797 76.266 63.4417 76.71C63.6037 77.154 63.6847 77.64 63.6847 78.168V84H62.5507C62.3167 84 62.1367 83.967 62.0107 83.901C61.8907 83.835 61.7917 83.697 61.7137 83.487L61.5157 82.893C61.2817 83.097 61.0537 83.277 60.8317 83.433C60.6157 83.589 60.3907 83.721 60.1567 83.829C59.9227 83.931 59.6707 84.009 59.4007 84.063C59.1367 84.117 58.8397 84.144 58.5097 84.144C58.1017 84.144 57.7297 84.09 57.3937 83.982C57.0577 83.874 56.7667 83.715 56.5207 83.505C56.2807 83.289 56.0947 83.022 55.9627 82.704C55.8307 82.386 55.7647 82.02 55.7647 81.606C55.7647 81.264 55.8517 80.922 56.0257 80.58C56.1997 80.238 56.4967 79.929 56.9167 79.653C57.3427 79.371 57.9067 79.14 58.6087 78.96C59.3167 78.774 60.2017 78.669 61.2637 78.645V78.168C61.2637 77.586 61.1407 77.16 60.8947 76.89C60.6487 76.614 60.2947 76.476 59.8327 76.476C59.4907 76.476 59.2057 76.518 58.9777 76.602C58.7497 76.68 58.5487 76.767 58.3747 76.863C58.2067 76.953 58.0477 77.04 57.8977 77.124C57.7477 77.202 57.5737 77.241 57.3757 77.241C57.2017 77.241 57.0547 77.199 56.9347 77.115C56.8207 77.025 56.7247 76.92 56.6467 76.8L56.2057 76.008ZM69.0797 79.014C69.5897 79.014 69.9647 78.885 70.2047 78.627C70.4507 78.369 70.5737 78.036 70.5737 77.628C70.5737 77.202 70.4507 76.869 70.2047 76.629C69.9647 76.383 69.5897 76.26 69.0797 76.26C68.5697 76.26 68.1947 76.383 67.9547 76.629C67.7147 76.869 67.5947 77.202 67.5947 77.628C67.5947 78.03 67.7147 78.363 67.9547 78.627C68.2007 78.885 68.5757 79.014 69.0797 79.014ZM71.4287 84.378C71.4287 84.216 71.3777 84.084 71.2757 83.982C71.1737 83.88 71.0357 83.799 70.8617 83.739C70.6937 83.679 70.4927 83.637 70.2587 83.613C70.0247 83.583 69.7757 83.562 69.5117 83.55C69.2477 83.532 68.9747 83.517 68.6927 83.505C68.4107 83.493 68.1347 83.472 67.8647 83.442C67.6547 83.568 67.4807 83.718 67.3427 83.892C67.2107 84.06 67.1447 84.252 67.1447 84.468C67.1447 84.618 67.1777 84.756 67.2437 84.882C67.3157 85.008 67.4327 85.116 67.5947 85.206C67.7567 85.296 67.9697 85.365 68.2337 85.413C68.4977 85.467 68.8277 85.494 69.2237 85.494C69.6317 85.494 69.9767 85.467 70.2587 85.413C70.5407 85.359 70.7687 85.281 70.9427 85.179C71.1167 85.083 71.2397 84.966 71.3117 84.828C71.3897 84.69 71.4287 84.54 71.4287 84.378ZM73.8947 75.027V75.936C73.8947 76.08 73.8527 76.194 73.7687 76.278C73.6907 76.362 73.5587 76.425 73.3727 76.467L72.6167 76.62C72.7187 76.914 72.7697 77.229 72.7697 77.565C72.7697 78.027 72.6737 78.444 72.4817 78.816C72.2957 79.182 72.0377 79.497 71.7077 79.761C71.3777 80.019 70.9877 80.22 70.5377 80.364C70.0877 80.502 69.6017 80.571 69.0797 80.571C68.7497 80.571 68.4407 80.544 68.1527 80.49C67.9007 80.646 67.7747 80.817 67.7747 81.003C67.7747 81.177 67.8587 81.303 68.0267 81.381C68.2007 81.459 68.4257 81.516 68.7017 81.552C68.9837 81.582 69.3017 81.603 69.6557 81.615C70.0157 81.621 70.3787 81.639 70.7447 81.669C71.1167 81.699 71.4797 81.753 71.8337 81.831C72.1937 81.903 72.5117 82.026 72.7877 82.2C73.0697 82.368 73.2947 82.593 73.4627 82.875C73.6367 83.157 73.7237 83.52 73.7237 83.964C73.7237 84.378 73.6217 84.78 73.4177 85.17C73.2137 85.56 72.9167 85.908 72.5267 86.214C72.1427 86.52 71.6687 86.766 71.1047 86.952C70.5407 87.138 69.8987 87.231 69.1787 87.231C68.4647 87.231 67.8437 87.162 67.3157 87.024C66.7937 86.892 66.3587 86.712 66.0107 86.484C65.6687 86.262 65.4137 86.004 65.2457 85.71C65.0777 85.416 64.9937 85.11 64.9937 84.792C64.9937 84.378 65.1197 84.027 65.3717 83.739C65.6237 83.451 65.9717 83.22 66.4157 83.046C66.1817 82.914 65.9927 82.743 65.8487 82.533C65.7107 82.317 65.6417 82.038 65.6417 81.696C65.6417 81.42 65.7407 81.129 65.9387 80.823C66.1427 80.517 66.4547 80.262 66.8747 80.058C66.4007 79.806 66.0257 79.47 65.7497 79.05C65.4737 78.624 65.3357 78.129 65.3357 77.565C65.3357 77.103 65.4287 76.686 65.6147 76.314C65.8067 75.942 66.0707 75.627 66.4067 75.369C66.7427 75.105 67.1387 74.904 67.5947 74.766C68.0507 74.628 68.5457 74.559 69.0797 74.559C69.8717 74.559 70.5707 74.715 71.1767 75.027H73.8947ZM80.8964 78.267C80.8964 78.009 80.8604 77.763 80.7884 77.529C80.7224 77.295 80.6144 77.088 80.4644 76.908C80.3144 76.728 80.1254 76.587 79.8974 76.485C79.6694 76.377 79.3964 76.323 79.0784 76.323C78.4844 76.323 78.0194 76.491 77.6834 76.827C77.3474 77.163 77.1284 77.643 77.0264 78.267H80.8964ZM76.9904 79.743C77.0684 80.613 77.3144 81.249 77.7284 81.651C78.1484 82.053 78.6944 82.254 79.3664 82.254C79.7084 82.254 80.0024 82.215 80.2484 82.137C80.5004 82.053 80.7194 81.963 80.9054 81.867C81.0974 81.765 81.2684 81.675 81.4184 81.597C81.5744 81.513 81.7274 81.471 81.8774 81.471C82.0694 81.471 82.2194 81.543 82.3274 81.687L83.0474 82.587C82.7834 82.893 82.4924 83.148 82.1744 83.352C81.8564 83.55 81.5264 83.709 81.1844 83.829C80.8424 83.943 80.4974 84.021 80.1494 84.063C79.8014 84.111 79.4654 84.135 79.1414 84.135C78.4934 84.135 77.8874 84.03 77.3234 83.82C76.7654 83.604 76.2764 83.289 75.8564 82.875C75.4424 82.455 75.1154 81.936 74.8754 81.318C74.6354 80.7 74.5154 79.983 74.5154 79.167C74.5154 78.537 74.6174 77.943 74.8214 77.385C75.0314 76.827 75.3314 76.341 75.7214 75.927C76.1114 75.513 76.5854 75.186 77.1434 74.946C77.7014 74.7 78.3314 74.577 79.0334 74.577C79.6274 74.577 80.1734 74.673 80.6714 74.865C81.1754 75.051 81.6074 75.324 81.9674 75.684C82.3334 76.044 82.6154 76.488 82.8134 77.016C83.0174 77.538 83.1194 78.135 83.1194 78.807C83.1194 78.993 83.1104 79.146 83.0924 79.266C83.0744 79.386 83.0444 79.482 83.0024 79.554C82.9604 79.626 82.9034 79.677 82.8314 79.707C82.7594 79.731 82.6664 79.743 82.5524 79.743H76.9904ZM55.2289 89.941V103H52.8439V94.981C52.8439 94.813 52.8469 94.633 52.8529 94.441C52.8649 94.249 52.8829 94.054 52.9069 93.856L49.1719 100.939C48.9679 101.329 48.6529 101.524 48.2269 101.524H47.8489C47.6389 101.524 47.4529 101.476 47.2909 101.38C47.1289 101.278 46.9999 101.131 46.9039 100.939L43.1509 93.829C43.1689 94.039 43.1839 94.243 43.1959 94.441C43.2079 94.633 43.2139 94.813 43.2139 94.981V103H40.8289V89.941H42.8809C42.9949 89.941 43.0969 89.944 43.1869 89.95C43.2769 89.956 43.3549 89.974 43.4209 90.004C43.4929 90.028 43.5559 90.07 43.6099 90.13C43.6699 90.184 43.7269 90.262 43.7809 90.364L47.4349 97.33C47.5489 97.54 47.6539 97.756 47.7499 97.978C47.8519 98.2 47.9479 98.428 48.0379 98.662C48.1279 98.422 48.2209 98.188 48.3169 97.96C48.4189 97.732 48.5269 97.513 48.6409 97.303L52.2679 90.364C52.3219 90.262 52.3789 90.184 52.4389 90.13C52.4989 90.07 52.5619 90.028 52.6279 90.004C52.6999 89.974 52.7779 89.956 52.8619 89.95C52.9519 89.944 53.0569 89.941 53.1769 89.941H55.2289ZM62.2481 99.121C61.6421 99.151 61.1381 99.205 60.7361 99.283C60.3341 99.355 60.0131 99.451 59.7731 99.571C59.5391 99.691 59.3711 99.829 59.2691 99.985C59.1731 100.135 59.1251 100.3 59.1251 100.48C59.1251 100.84 59.2241 101.095 59.4221 101.245C59.6261 101.395 59.9081 101.47 60.2681 101.47C60.6821 101.47 61.0391 101.398 61.3391 101.254C61.6451 101.104 61.9481 100.873 62.2481 100.561V99.121ZM57.1901 95.008C57.7361 94.516 58.3391 94.15 58.9991 93.91C59.6591 93.664 60.3731 93.541 61.1411 93.541C61.6931 93.541 62.1851 93.631 62.6171 93.811C63.0551 93.991 63.4241 94.243 63.7241 94.567C64.0301 94.885 64.2641 95.266 64.4261 95.71C64.5881 96.154 64.6691 96.64 64.6691 97.168V103H63.5351C63.3011 103 63.1211 102.967 62.9951 102.901C62.8751 102.835 62.7761 102.697 62.6981 102.487L62.5001 101.893C62.2661 102.097 62.0381 102.277 61.8161 102.433C61.6001 102.589 61.3751 102.721 61.1411 102.829C60.9071 102.931 60.6551 103.009 60.3851 103.063C60.1211 103.117 59.8241 103.144 59.4941 103.144C59.0861 103.144 58.7141 103.09 58.3781 102.982C58.0421 102.874 57.7511 102.715 57.5051 102.505C57.2651 102.289 57.0791 102.022 56.9471 101.704C56.8151 101.386 56.7491 101.02 56.7491 100.606C56.7491 100.264 56.8361 99.922 57.0101 99.58C57.1841 99.238 57.4811 98.929 57.9011 98.653C58.3271 98.371 58.8911 98.14 59.5931 97.96C60.3011 97.774 61.1861 97.669 62.2481 97.645V97.168C62.2481 96.586 62.1251 96.16 61.8791 95.89C61.6331 95.614 61.2791 95.476 60.8171 95.476C60.4751 95.476 60.1901 95.518 59.9621 95.602C59.7341 95.68 59.5331 95.767 59.3591 95.863C59.1911 95.953 59.0321 96.04 58.8821 96.124C58.7321 96.202 58.5581 96.241 58.3601 96.241C58.1861 96.241 58.0391 96.199 57.9191 96.115C57.8051 96.025 57.7091 95.92 57.6311 95.8L57.1901 95.008ZM70.064 98.014C70.574 98.014 70.949 97.885 71.189 97.627C71.435 97.369 71.558 97.036 71.558 96.628C71.558 96.202 71.435 95.869 71.189 95.629C70.949 95.383 70.574 95.26 70.064 95.26C69.554 95.26 69.179 95.383 68.939 95.629C68.699 95.869 68.579 96.202 68.579 96.628C68.579 97.03 68.699 97.363 68.939 97.627C69.185 97.885 69.56 98.014 70.064 98.014ZM72.413 103.378C72.413 103.216 72.362 103.084 72.26 102.982C72.158 102.88 72.02 102.799 71.846 102.739C71.678 102.679 71.477 102.637 71.243 102.613C71.009 102.583 70.76 102.562 70.496 102.55C70.232 102.532 69.959 102.517 69.677 102.505C69.395 102.493 69.119 102.472 68.849 102.442C68.639 102.568 68.465 102.718 68.327 102.892C68.195 103.06 68.129 103.252 68.129 103.468C68.129 103.618 68.162 103.756 68.228 103.882C68.3 104.008 68.417 104.116 68.579 104.206C68.741 104.296 68.954 104.365 69.218 104.413C69.482 104.467 69.812 104.494 70.208 104.494C70.616 104.494 70.961 104.467 71.243 104.413C71.525 104.359 71.753 104.281 71.927 104.179C72.101 104.083 72.224 103.966 72.296 103.828C72.374 103.69 72.413 103.54 72.413 103.378ZM74.879 94.027V94.936C74.879 95.08 74.837 95.194 74.753 95.278C74.675 95.362 74.543 95.425 74.357 95.467L73.601 95.62C73.703 95.914 73.754 96.229 73.754 96.565C73.754 97.027 73.658 97.444 73.466 97.816C73.28 98.182 73.022 98.497 72.692 98.761C72.362 99.019 71.972 99.22 71.522 99.364C71.072 99.502 70.586 99.571 70.064 99.571C69.734 99.571 69.425 99.544 69.137 99.49C68.885 99.646 68.759 99.817 68.759 100.003C68.759 100.177 68.843 100.303 69.011 100.381C69.185 100.459 69.41 100.516 69.686 100.552C69.968 100.582 70.286 100.603 70.64 100.615C71 100.621 71.363 100.639 71.729 100.669C72.101 100.699 72.464 100.753 72.818 100.831C73.178 100.903 73.496 101.026 73.772 101.2C74.054 101.368 74.279 101.593 74.447 101.875C74.621 102.157 74.708 102.52 74.708 102.964C74.708 103.378 74.606 103.78 74.402 104.17C74.198 104.56 73.901 104.908 73.511 105.214C73.127 105.52 72.653 105.766 72.089 105.952C71.525 106.138 70.883 106.231 70.163 106.231C69.449 106.231 68.828 106.162 68.3 106.024C67.778 105.892 67.343 105.712 66.995 105.484C66.653 105.262 66.398 105.004 66.23 104.71C66.062 104.416 65.978 104.11 65.978 103.792C65.978 103.378 66.104 103.027 66.356 102.739C66.608 102.451 66.956 102.22 67.4 102.046C67.166 101.914 66.977 101.743 66.833 101.533C66.695 101.317 66.626 101.038 66.626 100.696C66.626 100.42 66.725 100.129 66.923 99.823C67.127 99.517 67.439 99.262 67.859 99.058C67.385 98.806 67.01 98.47 66.734 98.05C66.458 97.624 66.32 97.129 66.32 96.565C66.32 96.103 66.413 95.686 66.599 95.314C66.791 94.942 67.055 94.627 67.391 94.369C67.727 94.105 68.123 93.904 68.579 93.766C69.035 93.628 69.53 93.559 70.064 93.559C70.856 93.559 71.555 93.715 72.161 94.027H74.879ZM78.7265 93.721V103H76.2425V93.721H78.7265ZM79.0235 91.084C79.0235 91.294 78.9815 91.489 78.8975 91.669C78.8135 91.849 78.6995 92.008 78.5555 92.146C78.4175 92.284 78.2525 92.392 78.0605 92.47C77.8745 92.548 77.6735 92.587 77.4575 92.587C77.2535 92.587 77.0585 92.548 76.8725 92.47C76.6925 92.392 76.5335 92.284 76.3955 92.146C76.2575 92.008 76.1465 91.849 76.0625 91.669C75.9845 91.489 75.9455 91.294 75.9455 91.084C75.9455 90.874 75.9845 90.679 76.0625 90.499C76.1465 90.313 76.2575 90.151 76.3955 90.013C76.5335 89.875 76.6925 89.767 76.8725 89.689C77.0585 89.611 77.2535 89.572 77.4575 89.572C77.6735 89.572 77.8745 89.611 78.0605 89.689C78.2525 89.767 78.4175 89.875 78.5555 90.013C78.6995 90.151 78.8135 90.313 78.8975 90.499C78.9815 90.679 79.0235 90.874 79.0235 91.084ZM87.5783 95.791C87.5063 95.887 87.4343 95.962 87.3623 96.016C87.2903 96.064 87.1883 96.088 87.0563 96.088C86.9363 96.088 86.8193 96.055 86.7053 95.989C86.5973 95.917 86.4713 95.842 86.3273 95.764C86.1833 95.68 86.0123 95.605 85.8143 95.539C85.6163 95.467 85.3703 95.431 85.0763 95.431C84.7043 95.431 84.3803 95.5 84.1043 95.638C83.8343 95.77 83.6093 95.962 83.4293 96.214C83.2493 96.466 83.1143 96.772 83.0243 97.132C82.9403 97.492 82.8983 97.897 82.8983 98.347C82.8983 99.295 83.0873 100.021 83.4653 100.525C83.8493 101.029 84.3713 101.281 85.0313 101.281C85.2593 101.281 85.4543 101.263 85.6163 101.227C85.7843 101.185 85.9283 101.134 86.0483 101.074C86.1743 101.014 86.2823 100.948 86.3723 100.876C86.4623 100.804 86.5463 100.738 86.6243 100.678C86.7083 100.618 86.7893 100.57 86.8673 100.534C86.9513 100.492 87.0443 100.471 87.1463 100.471C87.3383 100.471 87.4883 100.543 87.5963 100.687L88.3073 101.587C88.0433 101.893 87.7613 102.148 87.4613 102.352C87.1613 102.55 86.8493 102.709 86.5253 102.829C86.2073 102.943 85.8833 103.021 85.5533 103.063C85.2233 103.111 84.8963 103.135 84.5723 103.135C84.0023 103.135 83.4623 103.03 82.9523 102.82C82.4423 102.604 81.9953 102.292 81.6113 101.884C81.2273 101.476 80.9213 100.975 80.6933 100.381C80.4713 99.787 80.3603 99.109 80.3603 98.347C80.3603 97.669 80.4593 97.039 80.6573 96.457C80.8553 95.875 81.1463 95.371 81.5303 94.945C81.9143 94.519 82.3883 94.186 82.9523 93.946C83.5223 93.7 84.1793 93.577 84.9233 93.577C85.6313 93.577 86.2523 93.691 86.7863 93.919C87.3203 94.147 87.8003 94.477 88.2263 94.909L87.5783 95.791Z" fill="white"/>
<defs>
<linearGradient id="paint0_linear" x1="64" y1="0" x2="64" y2="128" gradientUnits="userSpaceOnUse">
<stop stop-color="#8851F2"/>
<stop offset="1" stop-color="#5F21DB"/>
</linearGradient>
</defs>
</svg>
